<mxfile host="app.diagrams.net" modified="2024-05-09T23:59:24.488Z" agent="Mozilla/5.0 (Windows NT 10.0; Win64; x64) AppleWebKit/537.36 (KHTML, like Gecko) Chrome/124.0.0.0 Safari/537.36 Edg/124.0.0.0" etag="UJ1S8BB2ndurabIw98y5" version="24.3.1" type="github">
  <diagram name="PÃ¡gina-1" id="89I74L4LfGI4mjZ6lhiM">
    <mxGraphModel dx="761" dy="751" grid="1" gridSize="10" guides="1" tooltips="1" connect="1" arrows="1" fold="1" page="1" pageScale="1" pageWidth="827" pageHeight="1169" math="0" shadow="0">
      <root>
        <mxCell id="0" />
        <mxCell id="1" parent="0" />
        <mxCell id="4fUWqiWXLJN5yxZLLSe5-1" value="DNI&lt;div&gt;&lt;br&gt;&lt;/div&gt;" style="ellipse;whiteSpace=wrap;html=1;" vertex="1" parent="1">
          <mxGeometry x="50" y="100" width="120" height="80" as="geometry" />
        </mxCell>
        <mxCell id="4fUWqiWXLJN5yxZLLSe5-2" value="&lt;div&gt;Nombre&lt;/div&gt;&lt;div&gt;&lt;br&gt;&lt;/div&gt;" style="ellipse;whiteSpace=wrap;html=1;" vertex="1" parent="1">
          <mxGeometry x="270" y="90" width="120" height="80" as="geometry" />
        </mxCell>
        <mxCell id="4fUWqiWXLJN5yxZLLSe5-3" value="Apellido" style="ellipse;whiteSpace=wrap;html=1;" vertex="1" parent="1">
          <mxGeometry x="570" y="80" width="120" height="80" as="geometry" />
        </mxCell>
        <mxCell id="4fUWqiWXLJN5yxZLLSe5-4" value="Direccion" style="ellipse;whiteSpace=wrap;html=1;" vertex="1" parent="1">
          <mxGeometry x="620" y="280" width="120" height="80" as="geometry" />
        </mxCell>
        <mxCell id="4fUWqiWXLJN5yxZLLSe5-5" value="Cliente" style="rounded=0;whiteSpace=wrap;html=1;" vertex="1" parent="1">
          <mxGeometry x="270" y="270" width="120" height="60" as="geometry" />
        </mxCell>
        <mxCell id="4fUWqiWXLJN5yxZLLSe5-16" value="" style="edgeStyle=elbowEdgeStyle;elbow=vertical;endArrow=classic;html=1;curved=0;rounded=0;endSize=8;startSize=8;exitX=0.5;exitY=1;exitDx=0;exitDy=0;entryX=0.117;entryY=0.033;entryDx=0;entryDy=0;entryPerimeter=0;" edge="1" parent="1" source="4fUWqiWXLJN5yxZLLSe5-1" target="4fUWqiWXLJN5yxZLLSe5-5">
          <mxGeometry width="50" height="50" relative="1" as="geometry">
            <mxPoint x="390" y="270" as="sourcePoint" />
            <mxPoint x="440" y="220" as="targetPoint" />
          </mxGeometry>
        </mxCell>
        <mxCell id="4fUWqiWXLJN5yxZLLSe5-17" value="" style="edgeStyle=elbowEdgeStyle;elbow=horizontal;endArrow=classic;html=1;curved=0;rounded=0;endSize=8;startSize=8;exitX=0;exitY=1;exitDx=0;exitDy=0;entryX=1;entryY=0.5;entryDx=0;entryDy=0;" edge="1" parent="1" source="4fUWqiWXLJN5yxZLLSe5-3" target="4fUWqiWXLJN5yxZLLSe5-5">
          <mxGeometry width="50" height="50" relative="1" as="geometry">
            <mxPoint x="390" y="270" as="sourcePoint" />
            <mxPoint x="440" y="220" as="targetPoint" />
          </mxGeometry>
        </mxCell>
        <mxCell id="4fUWqiWXLJN5yxZLLSe5-20" value="" style="endArrow=classic;html=1;rounded=0;exitX=0.5;exitY=1;exitDx=0;exitDy=0;entryX=0.5;entryY=0;entryDx=0;entryDy=0;" edge="1" parent="1" source="4fUWqiWXLJN5yxZLLSe5-2" target="4fUWqiWXLJN5yxZLLSe5-5">
          <mxGeometry width="50" height="50" relative="1" as="geometry">
            <mxPoint x="390" y="270" as="sourcePoint" />
            <mxPoint x="440" y="220" as="targetPoint" />
          </mxGeometry>
        </mxCell>
        <mxCell id="4fUWqiWXLJN5yxZLLSe5-23" value="" style="edgeStyle=elbowEdgeStyle;elbow=horizontal;endArrow=classic;html=1;curved=0;rounded=0;endSize=8;startSize=8;exitX=0;exitY=1;exitDx=0;exitDy=0;entryX=1.008;entryY=0.9;entryDx=0;entryDy=0;entryPerimeter=0;" edge="1" parent="1" source="4fUWqiWXLJN5yxZLLSe5-4">
          <mxGeometry width="50" height="50" relative="1" as="geometry">
            <mxPoint x="672.0799999999999" y="389.03999999999996" as="sourcePoint" />
            <mxPoint x="390.00000000000006" y="330" as="targetPoint" />
          </mxGeometry>
        </mxCell>
        <mxCell id="4fUWqiWXLJN5yxZLLSe5-24" value="ID&lt;div&gt;&lt;br&gt;&lt;/div&gt;" style="ellipse;whiteSpace=wrap;html=1;" vertex="1" parent="1">
          <mxGeometry x="20" y="240" width="120" height="80" as="geometry" />
        </mxCell>
        <mxCell id="4fUWqiWXLJN5yxZLLSe5-25" value="" style="edgeStyle=elbowEdgeStyle;elbow=horizontal;endArrow=classic;html=1;curved=0;rounded=0;endSize=8;startSize=8;entryX=-0.042;entryY=0.4;entryDx=0;entryDy=0;entryPerimeter=0;" edge="1" parent="1" source="4fUWqiWXLJN5yxZLLSe5-24" target="4fUWqiWXLJN5yxZLLSe5-5">
          <mxGeometry width="50" height="50" relative="1" as="geometry">
            <mxPoint x="360" y="420" as="sourcePoint" />
            <mxPoint x="410" y="370" as="targetPoint" />
          </mxGeometry>
        </mxCell>
        <mxCell id="4fUWqiWXLJN5yxZLLSe5-26" value="ID&lt;div&gt;&lt;br&gt;&lt;/div&gt;" style="ellipse;whiteSpace=wrap;html=1;" vertex="1" parent="1">
          <mxGeometry x="40" y="400" width="120" height="80" as="geometry" />
        </mxCell>
        <mxCell id="4fUWqiWXLJN5yxZLLSe5-27" value="cliente_id" style="ellipse;whiteSpace=wrap;html=1;" vertex="1" parent="1">
          <mxGeometry x="520" y="380" width="120" height="80" as="geometry" />
        </mxCell>
        <mxCell id="4fUWqiWXLJN5yxZLLSe5-28" value="producto_id" style="ellipse;whiteSpace=wrap;html=1;" vertex="1" parent="1">
          <mxGeometry x="510" y="470" width="120" height="80" as="geometry" />
        </mxCell>
        <mxCell id="4fUWqiWXLJN5yxZLLSe5-44" style="edgeStyle=orthogonalEdgeStyle;rounded=0;orthogonalLoop=1;jettySize=auto;html=1;" edge="1" parent="1">
          <mxGeometry relative="1" as="geometry">
            <mxPoint x="430" y="470" as="targetPoint" />
            <mxPoint x="430" y="470" as="sourcePoint" />
          </mxGeometry>
        </mxCell>
        <mxCell id="4fUWqiWXLJN5yxZLLSe5-29" value="&lt;div&gt;cliente_producto&lt;/div&gt;" style="rounded=0;whiteSpace=wrap;html=1;" vertex="1" parent="1">
          <mxGeometry x="270" y="410" width="120" height="60" as="geometry" />
        </mxCell>
        <mxCell id="4fUWqiWXLJN5yxZLLSe5-30" value="" style="edgeStyle=elbowEdgeStyle;elbow=horizontal;endArrow=classic;html=1;curved=0;rounded=0;endSize=8;startSize=8;exitX=1;exitY=0.5;exitDx=0;exitDy=0;" edge="1" parent="1" source="4fUWqiWXLJN5yxZLLSe5-26">
          <mxGeometry width="50" height="50" relative="1" as="geometry">
            <mxPoint x="30" y="480" as="sourcePoint" />
            <mxPoint x="270" y="440" as="targetPoint" />
          </mxGeometry>
        </mxCell>
        <mxCell id="4fUWqiWXLJN5yxZLLSe5-31" value="" style="endArrow=none;html=1;rounded=0;exitX=0.75;exitY=0;exitDx=0;exitDy=0;entryX=0.75;entryY=1;entryDx=0;entryDy=0;" edge="1" parent="1" source="4fUWqiWXLJN5yxZLLSe5-29" target="4fUWqiWXLJN5yxZLLSe5-5">
          <mxGeometry width="50" height="50" relative="1" as="geometry">
            <mxPoint x="360" y="420" as="sourcePoint" />
            <mxPoint x="410" y="370" as="targetPoint" />
          </mxGeometry>
        </mxCell>
        <mxCell id="4fUWqiWXLJN5yxZLLSe5-34" value="Codigo" style="ellipse;whiteSpace=wrap;html=1;" vertex="1" parent="1">
          <mxGeometry x="30" y="555" width="120" height="80" as="geometry" />
        </mxCell>
        <mxCell id="4fUWqiWXLJN5yxZLLSe5-35" value="Producto" style="rounded=0;whiteSpace=wrap;html=1;" vertex="1" parent="1">
          <mxGeometry x="270" y="565" width="120" height="60" as="geometry" />
        </mxCell>
        <mxCell id="4fUWqiWXLJN5yxZLLSe5-36" value="" style="endArrow=classic;html=1;rounded=0;exitX=1;exitY=0.5;exitDx=0;exitDy=0;entryX=0;entryY=0.5;entryDx=0;entryDy=0;" edge="1" parent="1" source="4fUWqiWXLJN5yxZLLSe5-34" target="4fUWqiWXLJN5yxZLLSe5-35">
          <mxGeometry width="50" height="50" relative="1" as="geometry">
            <mxPoint x="360" y="420" as="sourcePoint" />
            <mxPoint x="410" y="370" as="targetPoint" />
          </mxGeometry>
        </mxCell>
        <mxCell id="4fUWqiWXLJN5yxZLLSe5-38" value="" style="edgeStyle=elbowEdgeStyle;elbow=horizontal;endArrow=classic;html=1;curved=0;rounded=0;endSize=8;startSize=8;exitX=-0.025;exitY=0.613;exitDx=0;exitDy=0;exitPerimeter=0;entryX=1.008;entryY=0.65;entryDx=0;entryDy=0;entryPerimeter=0;" edge="1" parent="1" source="4fUWqiWXLJN5yxZLLSe5-28" target="4fUWqiWXLJN5yxZLLSe5-29">
          <mxGeometry width="50" height="50" relative="1" as="geometry">
            <mxPoint x="360" y="420" as="sourcePoint" />
            <mxPoint x="410" y="370" as="targetPoint" />
          </mxGeometry>
        </mxCell>
        <mxCell id="4fUWqiWXLJN5yxZLLSe5-42" value="" style="shape=partialRectangle;whiteSpace=wrap;html=1;bottom=0;right=0;fillColor=none;" vertex="1" parent="1">
          <mxGeometry x="450" y="400" width="70" height="50" as="geometry" />
        </mxCell>
        <mxCell id="4fUWqiWXLJN5yxZLLSe5-50" value="Cliente" style="swimlane;childLayout=stackLayout;horizontal=1;startSize=50;horizontalStack=0;rounded=1;fontSize=14;fontStyle=0;strokeWidth=2;resizeParent=0;resizeLast=1;shadow=0;dashed=0;align=center;arcSize=4;whiteSpace=wrap;html=1;" vertex="1" parent="1">
          <mxGeometry x="40" y="710" width="160" height="160" as="geometry" />
        </mxCell>
        <mxCell id="4fUWqiWXLJN5yxZLLSe5-51" value="ID (PK)&lt;div&gt;Nombre&lt;/div&gt;&lt;div&gt;Apellido&lt;/div&gt;&lt;div&gt;Direccion&lt;/div&gt;&lt;div&gt;DNI&lt;/div&gt;" style="align=left;strokeColor=none;fillColor=none;spacingLeft=4;fontSize=12;verticalAlign=top;resizable=0;rotatable=0;part=1;html=1;" vertex="1" parent="4fUWqiWXLJN5yxZLLSe5-50">
          <mxGeometry y="50" width="160" height="110" as="geometry" />
        </mxCell>
        <mxCell id="4fUWqiWXLJN5yxZLLSe5-54" value="Cliente_Producto" style="swimlane;childLayout=stackLayout;horizontal=1;startSize=50;horizontalStack=0;rounded=1;fontSize=14;fontStyle=0;strokeWidth=2;resizeParent=0;resizeLast=1;shadow=0;dashed=0;align=center;arcSize=4;whiteSpace=wrap;html=1;" vertex="1" parent="1">
          <mxGeometry x="320" y="710" width="160" height="160" as="geometry" />
        </mxCell>
        <mxCell id="4fUWqiWXLJN5yxZLLSe5-55" value="ID (PK)&lt;div&gt;cliente_id(FK)&lt;/div&gt;&lt;div&gt;producto_id(FK)&lt;/div&gt;" style="align=left;strokeColor=none;fillColor=none;spacingLeft=4;fontSize=12;verticalAlign=top;resizable=0;rotatable=0;part=1;html=1;" vertex="1" parent="4fUWqiWXLJN5yxZLLSe5-54">
          <mxGeometry y="50" width="160" height="110" as="geometry" />
        </mxCell>
        <mxCell id="4fUWqiWXLJN5yxZLLSe5-56" value="producto" style="swimlane;childLayout=stackLayout;horizontal=1;startSize=50;horizontalStack=0;rounded=1;fontSize=14;fontStyle=0;strokeWidth=2;resizeParent=0;resizeLast=1;shadow=0;dashed=0;align=center;arcSize=4;whiteSpace=wrap;html=1;" vertex="1" parent="1">
          <mxGeometry x="600" y="710" width="160" height="170" as="geometry" />
        </mxCell>
        <mxCell id="4fUWqiWXLJN5yxZLLSe5-57" value="ID(PK)&lt;div&gt;Codigo&lt;/div&gt;" style="align=left;strokeColor=none;fillColor=none;spacingLeft=4;fontSize=12;verticalAlign=top;resizable=0;rotatable=0;part=1;html=1;" vertex="1" parent="4fUWqiWXLJN5yxZLLSe5-56">
          <mxGeometry y="50" width="160" height="120" as="geometry" />
        </mxCell>
        <mxCell id="4fUWqiWXLJN5yxZLLSe5-66" value="" style="line;strokeWidth=1;rotatable=0;dashed=0;labelPosition=right;align=left;verticalAlign=middle;spacingTop=0;spacingLeft=6;points=[];portConstraint=eastwest;" vertex="1" parent="1">
          <mxGeometry x="200" y="785" width="120" height="10" as="geometry" />
        </mxCell>
        <mxCell id="4fUWqiWXLJN5yxZLLSe5-68" value="" style="line;strokeWidth=1;rotatable=0;dashed=0;labelPosition=right;align=left;verticalAlign=middle;spacingTop=0;spacingLeft=6;points=[];portConstraint=eastwest;" vertex="1" parent="1">
          <mxGeometry x="480" y="785" width="120" height="10" as="geometry" />
        </mxCell>
      </root>
    </mxGraphModel>
  </diagram>
</mxfile>
